# Blender v3.3.1 OBJ File: 'Picture.blend'
# www.blender.org
mtllib Picture.mtl
o Picture_Plane.008
v -1.441722 2.246162 -0.047550
v -1.468641 2.273081 -0.069145
v -1.457176 2.261616 -0.069145
v -1.457390 2.261830 -0.063029
v -1.455372 2.259812 -0.056568
v -1.451041 2.255481 -0.051360
v -1.445056 2.249496 -0.048198
v -1.488821 2.293260 -0.089668
v -1.470169 2.274608 -0.077282
v -1.474518 2.278958 -0.083791
v -1.481027 2.285467 -0.088141
v -1.521933 2.326373 -0.069604
v -1.509000 2.313440 -0.069604
v -1.496614 2.301054 -0.088141
v -1.503123 2.307563 -0.083791
v -1.507472 2.311912 -0.077282
v -1.555091 2.359531 -0.032566
v -1.555091 2.359531 -0.039335
v -1.522972 2.327412 -0.064831
v -1.544527 2.348967 -0.041158
v -1.534713 2.339153 -0.046643
v -1.527144 2.331584 -0.054956
v -1.585278 2.389718 0.000000
v -1.583941 2.388381 -0.010284
v -1.579034 2.383474 -0.020233
v -1.570812 2.375252 -0.027864
v -1.560525 2.364965 -0.032016
v 1.441723 2.246162 -0.047550
v 1.468642 2.273081 -0.069145
v 1.457176 2.261616 -0.069145
v 1.457390 2.261830 -0.063029
v 1.455373 2.259812 -0.056568
v 1.451042 2.255481 -0.051360
v 1.445057 2.249496 -0.048198
v 1.488821 2.293260 -0.089668
v 1.470169 2.274608 -0.077282
v 1.474519 2.278958 -0.083791
v 1.481028 2.285467 -0.088141
v 1.521933 2.326373 -0.069604
v 1.509000 2.313440 -0.069604
v 1.496614 2.301054 -0.088141
v 1.503123 2.307563 -0.083791
v 1.507473 2.311912 -0.077282
v 1.555092 2.359531 -0.032566
v 1.555092 2.359531 -0.039335
v 1.522972 2.327412 -0.064831
v 1.544527 2.348967 -0.041158
v 1.534714 2.339153 -0.046643
v 1.527144 2.331584 -0.054956
v 1.585278 2.389718 0.000000
v 1.583941 2.388381 -0.010284
v 1.579035 2.383474 -0.020233
v 1.570812 2.375252 -0.027864
v 1.560526 2.364965 -0.032016
v 1.464110 0.809506 -0.000000
v 1.441722 0.831894 -0.047550
v 1.468642 0.804975 -0.069145
v 1.457176 0.816440 -0.069145
v 1.457390 0.816226 -0.063029
v 1.455372 0.818244 -0.056568
v 1.451042 0.822575 -0.051360
v 1.445057 0.828560 -0.048198
v 1.488821 0.784796 -0.089668
v 1.470169 0.803448 -0.077282
v 1.474518 0.799098 -0.083792
v 1.481028 0.792589 -0.088141
v 1.521933 0.751683 -0.069604
v 1.509000 0.764616 -0.069604
v 1.496614 0.777003 -0.088141
v 1.503123 0.770493 -0.083792
v 1.507473 0.766144 -0.077282
v 1.555091 0.718525 -0.032566
v 1.555091 0.718525 -0.039335
v 1.522972 0.750645 -0.064832
v 1.544527 0.729089 -0.041158
v 1.534713 0.738903 -0.046643
v 1.527144 0.746472 -0.054956
v 1.585278 0.688338 -0.000000
v 1.583941 0.689676 -0.010284
v 1.579034 0.694582 -0.020233
v 1.570812 0.702804 -0.027864
v 1.560525 0.713091 -0.032016
v -1.464110 0.809506 -0.000000
v -1.441722 0.831894 -0.047550
v -1.468642 0.804975 -0.069145
v -1.457176 0.816440 -0.069145
v -1.457390 0.816226 -0.063029
v -1.455373 0.818244 -0.056568
v -1.451042 0.822575 -0.051360
v -1.445057 0.828560 -0.048198
v -1.488821 0.784795 -0.089668
v -1.470169 0.803447 -0.077282
v -1.474518 0.799098 -0.083792
v -1.481028 0.792589 -0.088141
v -1.521933 0.751683 -0.069604
v -1.509000 0.764616 -0.069604
v -1.496614 0.777003 -0.088141
v -1.503123 0.770493 -0.083792
v -1.507473 0.766144 -0.077282
v -1.555091 0.718525 -0.032566
v -1.555091 0.718525 -0.039335
v -1.522972 0.750644 -0.064832
v -1.544527 0.729089 -0.041158
v -1.534713 0.738903 -0.046643
v -1.527144 0.746472 -0.054956
v -1.585278 0.688338 -0.000000
v -1.583941 0.689676 -0.010284
v -1.579035 0.694582 -0.020233
v -1.570812 0.702804 -0.027864
v -1.560525 0.713091 -0.032016
v -1.441722 2.246162 -0.036851
v 1.441723 2.246162 -0.036851
v 1.441723 0.831894 -0.036851
v -1.441723 0.831894 -0.036851
v -1.464110 2.268550 0.000000
v 1.464111 2.268550 0.000000
vt 0.709382 0.003906
vt 0.368457 0.698993
vt 0.368457 0.003906
vt 0.003906 0.003906
vt 0.355625 0.709787
vt 0.003906 0.709787
vt 0.709382 0.698993
vt 0.355625 0.003906
vt 0.385986 0.894690
vt 0.005058 0.865481
vt 0.415195 0.865481
vt 0.918096 0.010643
vt 0.915385 0.394576
vt 0.915385 0.008819
vt 0.349445 0.977604
vt 0.005469 0.975972
vt 0.350887 0.975972
vt 0.003939 0.972708
vt 0.352366 0.971232
vt 0.352418 0.972708
vt 0.920680 0.011649
vt 0.918095 0.392751
vt 0.351931 0.974339
vt 0.812589 0.885590
vt 0.419553 0.883006
vt 0.810043 0.883006
vt 0.014639 0.956405
vt 0.368911 0.958400
vt 0.015008 0.958400
vt 0.759264 0.954517
vt 0.403578 0.956405
vt 0.402529 0.954518
vt 0.979366 0.408954
vt 0.980683 0.012064
vt 0.980683 0.407644
vt 0.921857 0.391495
vt 0.920680 0.391746
vt 0.760833 0.952630
vt 0.400960 0.952630
vt 0.385986 0.722619
vt 0.005058 0.751828
vt 0.034267 0.722619
vt 0.973988 0.006292
vt 0.971314 0.414599
vt 0.971314 0.005109
vt 0.762711 0.950716
vt 0.399081 0.950716
vt 0.976692 0.008274
vt 0.973988 0.413416
vt 0.766159 0.946914
vt 0.397203 0.948802
vt 0.395634 0.946914
vt 0.979366 0.010754
vt 0.976692 0.411434
vt 0.982273 0.424566
vt 0.979773 0.834381
vt 0.979773 0.424889
vt 0.767207 0.945027
vt 0.394585 0.945027
vt 0.767575 0.943140
vt 0.394217 0.943140
vt 0.996094 0.003906
vt 0.993515 0.344831
vt 0.993515 0.003906
vt 0.008265 0.948802
vt 0.373775 0.950716
vt 0.010143 0.950716
vt 0.469349 0.991255
vt 0.128408 0.993834
vt 0.128408 0.991255
vt 0.007716 0.978423
vt 0.006912 0.977604
vt 0.366398 0.973996
vt 0.717548 0.971232
vt 0.720312 0.973996
vt 0.921857 0.011900
vt 0.924975 0.388377
vt 0.908459 0.003906
vt 0.910091 0.399488
vt 0.908459 0.399488
vt 0.919927 0.408497
vt 0.918294 0.754961
vt 0.918294 0.409541
vt 0.912675 0.396942
vt 0.912675 0.006453
vt 0.706569 0.913237
vt 0.003991 0.914712
vt 0.003939 0.913237
vt 0.011649 0.787634
vt 0.746912 0.790219
vt 0.010643 0.790219
vt 0.004425 0.911605
vt 0.006453 0.795639
vt 0.753649 0.798224
vt 0.003906 0.798223
vt 0.015008 0.812687
vt 0.723439 0.814683
vt 0.014640 0.814683
vt 0.837639 0.723443
vt 0.839527 0.013591
vt 0.839527 0.724491
vt 0.761811 0.852649
vt 0.010754 0.851332
vt 0.763121 0.851332
vt 0.011899 0.786457
vt 0.745906 0.787635
vt 0.841414 0.012022
vt 0.841414 0.726061
vt 0.764255 0.769354
vt 0.793464 0.034267
vt 0.793464 0.740146
vt 0.767582 0.845954
vt 0.005109 0.843280
vt 0.768765 0.843280
vt 0.843328 0.010143
vt 0.843328 0.727939
vt 0.765600 0.848658
vt 0.006292 0.845954
vt 0.847130 0.731387
vt 0.845242 0.008265
vt 0.847130 0.006696
vt 0.008274 0.848658
vt 0.873105 0.768760
vt 0.875605 0.004787
vt 0.875605 0.769083
vt 0.849017 0.005647
vt 0.849017 0.732435
vt 0.850904 0.005279
vt 0.850904 0.732803
vt 0.010144 0.820372
vt 0.729814 0.822286
vt 0.008265 0.822286
vt 0.955982 0.003906
vt 0.953403 0.698986
vt 0.953403 0.003906
vt 0.007716 0.907522
vt 0.703596 0.908341
vt 0.006912 0.908341
vt 0.937807 0.710358
vt 0.940571 0.005058
vt 0.940571 0.713122
vt 0.015017 0.783340
vt 0.745656 0.786457
vt 0.753649 0.799855
vt 0.003906 0.799855
vt 0.893177 0.005469
vt 0.891544 0.706098
vt 0.891544 0.004425
vt 0.813222 0.008819
vt 0.810512 0.751103
vt 0.810512 0.006453
vt 0.705038 0.909973
vt 0.005469 0.909972
vt 0.748737 0.792929
vt 0.008819 0.792929
vt 0.807677 0.880296
vt 0.423743 0.877585
vt 0.805853 0.877586
vt 0.916662 0.410984
vt 0.916662 0.753519
vt 0.923034 0.408062
vt 0.921558 0.756492
vt 0.921558 0.408011
vt 0.424749 0.875001
vt 0.804847 0.875001
vt 0.919927 0.756005
vt 0.370327 0.954517
vt 0.369279 0.956405
vt 0.970404 0.431843
vt 0.971720 0.828736
vt 0.970404 0.827427
vt 0.804596 0.873824
vt 0.012022 0.952630
vt 0.013591 0.954517
vt 0.977099 0.833198
vt 0.977099 0.426071
vt 0.371896 0.952630
vt 0.974394 0.831216
vt 0.974394 0.428053
vt 0.006696 0.946914
vt 0.375654 0.948801
vt 0.971720 0.430533
vt 0.751102 0.795639
vt 0.005647 0.945027
vt 0.377223 0.946914
vt 0.005279 0.943140
vt 0.378271 0.945027
vt 0.895920 0.989592
vt 0.544781 0.986828
vt 0.893156 0.986828
vt 0.801479 0.870706
vt 0.424999 0.873824
vt 0.428117 0.870706
vt 0.915844 0.411787
vt 0.915843 0.752715
vt 0.812589 0.887222
vt 0.417006 0.885590
vt 0.421918 0.880296
vt 0.889912 0.003939
vt 0.888437 0.706532
vt 0.888437 0.003991
vt 0.815933 0.010643
vt 0.818517 0.745907
vt 0.815932 0.746912
vt 0.889912 0.706584
vt 0.807928 0.003906
vt 0.807928 0.753649
vt 0.758215 0.956405
vt 0.403946 0.958401
vt 0.013591 0.816571
vt 0.724487 0.816570
vt 0.865053 0.763116
vt 0.863736 0.012064
vt 0.865053 0.010754
vt 0.819694 0.011899
vt 0.818517 0.011649
vt 0.726057 0.818458
vt 0.012022 0.818458
vt 0.722214 0.769356
vt 0.751423 0.034267
vt 0.751423 0.740147
vt 0.870431 0.767578
vt 0.873105 0.005109
vt 0.727935 0.820372
vt 0.867727 0.765596
vt 0.870431 0.006292
vt 0.731383 0.824174
vt 0.006696 0.824174
vt 0.867727 0.008274
vt 0.968814 0.004787
vt 0.968814 0.414921
vt 0.005648 0.826061
vt 0.732431 0.826061
vt 0.732800 0.827948
vt 0.005279 0.827948
vt 0.764590 0.948802
vt 0.699001 0.767239
vt 0.003906 0.764660
vt 0.699001 0.764660
vt 0.895627 0.007716
vt 0.894808 0.703611
vt 0.894808 0.006912
vt 0.007822 0.927544
vt 0.713126 0.930308
vt 0.005058 0.930308
vt 0.822812 0.742538
vt 0.819694 0.745656
vt 0.806296 0.753649
vt 0.806296 0.003906
vt 0.004425 0.974339
vt 0.910091 0.003906
vt 0.893177 0.705054
vt 0.813222 0.748737
vt 0.769087 0.840780
vt 0.004787 0.840780
vt 0.845243 0.729818
vt 0.835644 0.723075
vt 0.837639 0.014640
vt 0.706082 0.911605
vt 0.034267 0.894690
vt 0.003991 0.971232
vt 0.415195 0.751828
vt 0.982273 0.834703
vt 0.996094 0.344831
vt 0.469349 0.993834
vt 0.348641 0.978423
vt 0.369162 0.971232
vt 0.924975 0.015017
vt 0.706517 0.914712
vt 0.723071 0.812688
vt 0.012064 0.852649
vt 0.764255 0.005058
vt 0.955982 0.698986
vt 0.702792 0.907522
vt 0.937807 0.007822
vt 0.742538 0.783340
vt 0.923034 0.756440
vt 0.378639 0.943140
vt 0.542017 0.989592
vt 0.417006 0.887222
vt 0.757847 0.958401
vt 0.863736 0.761806
vt 0.722214 0.005058
vt 0.003906 0.767239
vt 0.895627 0.702807
vt 0.710362 0.927544
vt 0.822812 0.015017
vt 0.835644 0.015008
vn 0.0000 0.0000 -1.0000
vn 0.0000 -0.0000 1.0000
vn -0.8150 0.0000 -0.5795
vn -0.5694 0.0000 -0.8220
vn 0.3993 0.0000 -0.9168
vn 0.6940 0.0000 -0.7199
vn 0.9930 -0.0000 -0.1182
vn 0.9994 -0.0000 0.0350
vn 0.9930 -0.0000 -0.1181
vn -0.9482 0.0000 -0.3178
vn 0.9052 -0.0000 -0.4249
vn 0.9092 -0.0000 -0.4164
vn 0.2576 0.0000 -0.9663
vn -0.9098 0.0000 -0.4150
vn -0.9828 0.0000 -0.1845
vn 0.6547 -0.0000 -0.7559
vn 0.9098 -0.0000 -0.4150
vn -0.3072 0.0000 -0.9517
vn -0.1006 0.0000 -0.9949
vn -0.8311 0.0000 -0.5561
vn 0.2957 0.0000 -0.9553
vn -0.8395 0.0000 -0.5433
vn -0.9659 0.0000 -0.2591
vn -0.0964 0.0000 -0.9953
vn -0.6050 0.0000 -0.7963
vn -0.7618 0.0000 -0.6478
vn -0.4682 0.0000 -0.8836
vn 0.9916 -0.0000 -0.1290
vn 0.9659 -0.0000 -0.2591
vn -0.9416 0.0000 -0.3368
vn -0.9808 0.0000 -0.1951
vn -1.0000 -0.0000 -0.0000
vn 0.4682 0.0000 -0.8836
vn 0.0964 0.0000 -0.9953
vn 1.0000 -0.0000 0.0000
vn 0.1909 0.0000 -0.9816
vn 0.3994 -0.0000 -0.9168
vn -0.9092 0.0000 -0.4164
vn -0.9052 0.0000 -0.4249
vn -0.6940 0.0000 -0.7199
vn -0.6940 0.0000 -0.7200
vn -0.2576 0.0000 -0.9663
vn 0.0000 -0.9930 -0.1182
vn 0.0000 -0.9994 0.0349
vn 0.0000 0.9482 -0.3178
vn 0.0000 0.8150 -0.5795
vn 0.0000 -0.9052 -0.4249
vn 0.0000 0.2576 -0.9663
vn 0.0000 0.9092 -0.4164
vn -0.0000 0.9828 -0.1845
vn -0.0000 0.9098 -0.4150
vn 0.0000 -0.9098 -0.4150
vn 0.0000 -0.6547 -0.7559
vn 0.0000 0.1006 -0.9949
vn 0.0000 0.3072 -0.9517
vn 0.0000 0.8311 -0.5561
vn 0.0000 -0.2957 -0.9553
vn 0.0000 0.8395 -0.5433
vn 0.0000 0.9659 -0.2591
vn -0.0000 0.0964 -0.9953
vn 0.0000 0.6050 -0.7962
vn 0.0000 0.7618 -0.6478
vn -0.0000 0.4682 -0.8836
vn 0.0000 0.7618 -0.6479
vn 0.0000 -0.9659 -0.2591
vn 0.0000 -0.9917 -0.1289
vn 0.0000 -0.9917 -0.1290
vn 0.0000 0.9416 -0.3368
vn 0.0000 0.9808 -0.1951
vn -0.0000 -0.0964 -0.9953
vn 0.0000 -0.4682 -0.8836
vn 0.0000 -1.0000 0.0000
vn 0.0000 -0.1909 -0.9816
vn 0.0000 -0.3994 -0.9168
vn 0.0000 -0.3993 -0.9168
vn 0.0000 0.8311 -0.5562
vn 0.0000 1.0000 0.0000
vn -0.0000 0.6940 -0.7199
vn -0.0000 0.9052 -0.4249
vn 0.0000 -0.5694 -0.8220
vn 0.0000 -0.2576 -0.9663
vn 0.0000 -0.6941 -0.7199
vn 0.0000 -0.6940 -0.7200
vn 0.0000 0.5694 -0.8220
vn 0.0000 0.5694 -0.8221
vn 0.5694 -0.0000 -0.8220
vn 0.8150 -0.0000 -0.5795
vn -0.3994 0.0000 -0.9168
vn -0.3993 0.0000 -0.9168
vn -0.9994 0.0000 0.0350
vn -0.9930 0.0000 -0.1182
vn -0.9930 0.0000 -0.1181
vn 0.9482 -0.0000 -0.3178
vn -0.6547 0.0000 -0.7559
vn 0.1006 0.0000 -0.9949
vn 0.3072 0.0000 -0.9517
vn 0.8311 0.0000 -0.5561
vn -0.2957 0.0000 -0.9553
vn 0.8395 -0.0000 -0.5433
vn 0.6050 -0.0000 -0.7962
vn 0.6050 0.0000 -0.7963
vn 0.7618 -0.0000 -0.6478
vn 0.9416 -0.0000 -0.3368
vn 0.7618 -0.0000 -0.6479
vn 0.9808 -0.0000 -0.1951
vn -0.1909 0.0000 -0.9816
vn -0.0000 0.9930 -0.1181
vn -0.0000 0.9994 0.0350
vn 0.0000 -0.8150 -0.5795
vn 0.0000 -0.9482 -0.3178
vn -0.0000 0.9930 -0.1182
vn 0.0000 -0.9092 -0.4164
vn 0.9828 -0.0000 -0.1845
vn -0.0000 0.6547 -0.7559
vn 0.0000 -0.3072 -0.9517
vn 0.0000 -0.1006 -0.9949
vn 0.0000 -0.8311 -0.5561
vn -0.0000 0.2957 -0.9553
vn 0.0000 -0.8395 -0.5434
vn 0.0000 -0.6050 -0.7963
vn 0.0000 -0.7618 -0.6478
vn 0.0000 -0.6050 -0.7962
vn -0.9916 0.0000 -0.1290
vn 0.0000 -0.9416 -0.3368
vn 0.0000 -0.9808 -0.1951
vn -0.0000 0.1909 -0.9816
vn -0.0000 0.3993 -0.9168
vn -0.0000 0.3994 -0.9168
vn 0.0000 0.9917 -0.1289
vn -0.0000 0.9916 -0.1290
vn 0.0000 -0.9828 -0.1844
vn 0.0000 -0.9994 0.0350
vn 0.0000 -0.1910 -0.9816
usemtl None
s off
f 113/1/1 111/2/1 112/3/1
f 115/4/2 55/5/2 116/6/2
f 113/1/1 114/7/1 111/2/1
f 115/4/2 83/8/2 55/5/2
s 1
f 116/9/2 78/10/2 50/11/2
f 22/12/3 104/13/4 21/14/4
f 7/15/5 89/16/6 6/17/6
f 87/18/7 3/19/8 4/20/9
f 19/21/10 105/22/3 22/12/3
f 5/23/11 87/18/7 4/20/9
f 45/24/12 75/25/13 47/26/13
f 36/27/14 57/28/15 29/29/15
f 10/30/16 92/31/17 93/32/16
f 110/33/18 17/34/19 100/35/19
f 19/21/10 95/36/20 102/37/10
f 11/38/21 93/32/16 94/39/21
f 115/40/2 106/41/2 83/42/2
f 25/43/22 107/44/23 24/45/23
f 8/46/24 94/39/21 91/47/24
f 26/48/25 108/49/22 25/43/22
f 15/50/26 97/51/27 98/52/26
f 27/53/18 109/54/25 26/48/25
f 50/55/28 79/56/29 51/57/29
f 16/58/30 98/52/26 99/59/30
f 13/60/31 99/59/30 96/61/31
f 28/62/32 113/63/32 112/64/32
f 41/65/33 63/66/34 35/67/34
f 1/68/35 114/69/35 84/70/35
f 7/15/5 84/71/36 90/72/37
f 2/73/1 86/74/1 85/75/1
f 12/76/20 96/77/1 95/36/20
f 17/78/32 101/79/38 100/80/32
f 32/81/39 61/82/40 33/83/41
f 21/14/4 103/84/42 20/85/42
f 4/86/43 30/87/44 31/88/43
f 46/89/45 22/90/46 49/91/46
f 32/92/47 4/86/43 31/88/43
f 47/93/48 18/94/49 45/95/49
f 85/96/50 64/97/51 92/98/51
f 36/99/52 10/100/53 37/101/53
f 44/102/54 27/103/55 54/104/55
f 39/105/56 19/106/45 46/89/45
f 37/101/53 11/107/57 38/108/57
f 50/109/2 115/110/2 116/111/2
f 52/112/58 24/113/59 51/114/59
f 38/108/57 8/115/60 35/116/60
f 53/117/61 25/118/58 52/112/58
f 42/119/62 14/120/63 15/121/64
f 54/104/55 26/122/61 53/117/61
f 107/123/65 78/124/66 106/125/67
f 42/119/62 16/126/68 43/127/68
f 43/127/68 13/128/69 40/129/69
f 91/130/70 69/131/71 97/132/71
f 112/133/72 1/134/72 28/135/72
f 28/136/73 7/137/74 34/138/75
f 30/139/1 2/140/1 29/141/1
f 40/142/1 12/143/76 39/105/56
f 45/95/49 17/144/77 44/145/77
f 89/146/78 60/147/79 88/148/79
f 104/149/80 75/150/81 103/151/81
f 34/138/75 6/152/82 33/153/83
f 49/91/46 21/154/84 48/155/85
f 48/156/86 77/157/87 49/158/87
f 34/159/88 61/82/40 62/160/89
f 30/161/90 59/162/91 31/163/92
f 49/158/87 74/164/93 46/165/93
f 31/163/92 60/166/39 32/81/39
f 36/27/14 65/167/94 64/168/14
f 44/169/95 82/170/96 72/171/95
f 74/164/93 39/172/97 46/165/93
f 38/173/98 65/167/94 37/174/94
f 51/57/29 80/175/99 52/176/99
f 38/173/98 63/66/34 66/177/98
f 52/176/99 81/178/100 53/179/101
f 42/180/102 69/181/33 41/65/33
f 53/179/101 82/170/96 54/182/96
f 48/155/85 20/183/48 47/93/48
f 43/184/103 70/185/104 42/180/102
f 40/186/105 71/187/103 43/184/103
f 29/188/1 58/189/1 30/190/1
f 40/191/1 67/192/97 68/193/1
f 28/194/106 62/160/89 56/195/106
f 44/196/35 73/197/12 45/24/12
f 47/26/13 76/198/86 48/156/86
f 87/199/107 58/200/108 86/201/108
f 105/202/109 74/203/110 77/204/109
f 88/148/79 59/205/111 87/199/107
f 101/206/112 75/150/81 73/207/112
f 9/208/17 85/209/113 92/31/17
f 93/210/114 64/97/51 65/211/114
f 110/212/115 72/213/116 82/214/115
f 95/215/117 74/203/110 102/216/110
f 93/210/114 66/217/118 94/218/118
f 106/219/2 55/220/2 83/221/2
f 108/222/119 79/223/65 107/123/65
f 94/218/118 63/224/70 91/130/70
f 109/225/120 80/226/119 108/222/119
f 97/132/71 70/227/121 98/228/121
f 110/212/115 81/229/122 109/225/120
f 23/230/123 107/44/23 106/231/123
f 99/232/124 70/227/121 71/233/124
f 99/232/124 68/234/125 96/235/125
f 14/236/27 91/47/24 97/51/27
f 114/237/77 56/238/77 84/239/77
f 84/240/126 62/241/127 90/242/128
f 86/243/1 57/244/1 85/245/1
f 95/215/117 68/246/1 67/247/117
f 101/206/112 72/248/72 100/249/72
f 88/250/11 6/17/6 89/16/6
f 20/85/42 101/79/38 18/251/38
f 90/242/128 61/252/78 89/146/78
f 105/202/109 76/253/80 104/149/80
f 50/254/129 24/113/59 23/255/130
f 35/116/60 14/120/63 41/256/63
f 29/257/131 9/258/52 36/99/52
f 33/153/83 5/259/47 32/92/47
f 116/9/2 55/260/2 78/10/2
f 22/12/3 105/22/3 104/13/4
f 7/15/5 90/72/37 89/16/6
f 87/18/7 86/261/8 3/19/8
f 19/21/10 102/37/10 105/22/3
f 5/23/11 88/250/11 87/18/7
f 45/24/12 73/197/12 75/25/13
f 36/27/14 64/168/14 57/28/15
f 10/30/16 9/208/17 92/31/17
f 110/33/18 27/53/18 17/34/19
f 19/21/10 12/76/20 95/36/20
f 11/38/21 10/30/16 93/32/16
f 115/40/2 23/262/2 106/41/2
f 25/43/22 108/49/22 107/44/23
f 8/46/24 11/38/21 94/39/21
f 26/48/25 109/54/25 108/49/22
f 15/50/26 14/236/27 97/51/27
f 27/53/18 110/33/18 109/54/25
f 50/55/28 78/263/28 79/56/29
f 16/58/30 15/50/26 98/52/26
f 13/60/31 16/58/30 99/59/30
f 28/62/32 56/264/32 113/63/32
f 41/65/33 69/181/33 63/66/34
f 1/68/35 111/265/35 114/69/35
f 7/15/5 1/266/36 84/71/36
f 2/73/1 3/267/1 86/74/1
f 12/76/20 13/268/1 96/77/1
f 17/78/32 18/251/38 101/79/38
f 32/81/39 60/166/39 61/82/40
f 21/14/4 104/13/4 103/84/42
f 4/86/43 3/269/132 30/87/44
f 46/89/45 19/106/45 22/90/46
f 32/92/47 5/259/47 4/86/43
f 47/93/48 20/183/48 18/94/49
f 85/96/50 57/270/50 64/97/51
f 36/99/52 9/258/52 10/100/53
f 44/102/54 17/271/54 27/103/55
f 39/105/56 12/143/76 19/106/45
f 37/101/53 10/100/53 11/107/57
f 50/109/2 23/272/2 115/110/2
f 52/112/58 25/118/58 24/113/59
f 38/108/57 11/107/57 8/115/60
f 53/117/61 26/122/61 25/118/58
f 42/119/62 41/256/63 14/120/63
f 54/104/55 27/103/55 26/122/61
f 107/123/65 79/223/65 78/124/66
f 42/119/62 15/121/64 16/126/68
f 43/127/68 16/126/68 13/128/69
f 91/130/70 63/224/70 69/131/71
f 112/133/72 111/273/72 1/134/72
f 28/136/73 1/274/133 7/137/74
f 30/139/1 3/275/1 2/140/1
f 40/142/1 13/276/1 12/143/76
f 45/95/49 18/94/49 17/144/77
f 89/146/78 61/252/78 60/147/79
f 104/149/80 76/253/80 75/150/81
f 34/138/75 7/137/74 6/152/82
f 49/91/46 22/90/46 21/154/84
f 48/156/86 76/198/86 77/157/87
f 34/159/88 33/83/41 61/82/40
f 30/161/90 58/277/90 59/162/91
f 49/158/87 77/157/87 74/164/93
f 31/163/92 59/162/91 60/166/39
f 36/27/14 37/174/94 65/167/94
f 44/169/95 54/182/96 82/170/96
f 74/164/93 67/192/97 39/172/97
f 38/173/98 66/177/98 65/167/94
f 51/57/29 79/56/29 80/175/99
f 38/173/98 35/67/34 63/66/34
f 52/176/99 80/175/99 81/178/100
f 42/180/102 70/185/104 69/181/33
f 53/179/101 81/178/100 82/170/96
f 48/155/85 21/154/84 20/183/48
f 43/184/103 71/187/103 70/185/104
f 40/186/105 68/278/105 71/187/103
f 29/188/1 57/279/1 58/189/1
f 40/191/1 39/172/97 67/192/97
f 28/194/106 34/159/88 62/160/89
f 44/196/35 72/280/35 73/197/12
f 47/26/13 75/25/13 76/198/86
f 87/199/107 59/205/111 58/200/108
f 105/202/109 102/216/110 74/203/110
f 88/148/79 60/147/79 59/205/111
f 101/206/112 103/151/81 75/150/81
f 9/208/17 2/281/113 85/209/113
f 93/210/114 92/98/51 64/97/51
f 110/212/115 100/282/116 72/213/116
f 95/215/117 67/247/117 74/203/110
f 93/210/114 65/211/114 66/217/118
f 106/219/2 78/283/2 55/220/2
f 108/222/119 80/226/119 79/223/65
f 94/218/118 66/217/118 63/224/70
f 109/225/120 81/229/122 80/226/119
f 97/132/71 69/131/71 70/227/121
f 110/212/115 82/214/115 81/229/122
f 23/230/123 24/45/23 107/44/23
f 99/232/124 98/228/121 70/227/121
f 99/232/124 71/233/124 68/234/125
f 14/236/27 8/46/24 91/47/24
f 114/237/77 113/284/77 56/238/77
f 84/240/126 56/285/126 62/241/127
f 86/243/1 58/286/1 57/244/1
f 95/215/117 96/287/1 68/246/1
f 101/206/112 73/207/112 72/248/72
f 88/250/11 5/23/11 6/17/6
f 20/85/42 103/84/42 101/79/38
f 90/242/128 62/241/127 61/252/78
f 105/202/109 77/204/109 76/253/80
f 50/254/129 51/114/59 24/113/59
f 35/116/60 8/115/60 14/120/63
f 29/257/131 2/288/131 9/258/52
f 33/153/83 6/152/82 5/259/47
